# xmcd
#
# Track frame offsets:
#	150
#	2825
#	20780
#	38477
#	63535
#	85747
#	105352
#	126620
#	149675
#	164612
#	185985
#	200290
#	203370
#
# Disc length: 3021 seconds
#
# Revision: 1
# Processed by: cddbd v1.5.1PL0 Copyright (c) Steve Scherf et al.
# Submitted via: CDex 1.50Beta5
#
DISCID=b90bcb0d
DTITLE=MILKRUN - くちびるに歌をもて
DYEAR=1900
DGENRE=Rock
TTITLE0=O'jatta Moncd
TTITLE1=この場所から
TTITLE2=LA LA LA LIVE MY LIFE!
TTITLE3=夜空へと
TTITLE4=夏の忘れもの
TTITLE5=I'M A PRISONER
TTITLE6=最後のくちづけ
TTITLE7=嘘のない歌
TTITLE8=アンフェア
TTITLE9=たとえば、こんなささやかな一日
TTITLE10=抱きしめたい
TTITLE11=もいっどO'jatta Monce
TTITLE12=Apple of My Eye
EXTD=
EXTT0=
EXTT1=
EXTT2=
EXTT3=
EXTT4=
EXTT5=
EXTT6=
EXTT7=
EXTT8=
EXTT9=
EXTT10=
EXTT11=
EXTT12=
PLAYORDER=
